<?xml version="1.0" encoding="utf-8"?>
<!-- Generator: Adobe Illustrator 22.0.1, SVG Export Plug-In . SVG Version: 6.00 Build 0) -->
<!-- <svg version="1.1" id="Layer_1" xmlns="http://www.w3.org/2000/svg" xmlns:xlink="http://www.w3.org/1999/xlink" x="0px" y="0px" viewBox="0 0 50 50" style="enable-background:new 0 0 50 50;" xml:space="preserve">
	<g>
		<path d="M14.1,33.5L8,35.3h0c-0.1,0-0.1,0-0.2,0c0,0,0,0-0.1,0c-0.8,0.4-1.2,2.1-0.7,3.9c0.5,2,1.7,3.5,2.7,3.3
c0.1,0,0.1,0,0.2-0.1v0l0.1,0l9.5-4.7C17.5,36.8,15.6,35.4,14.1,33.5z" />
		<path d="M28.6,39.8c-0.6,0.1-1.2,0.1-1.8,0.1c-1.1,0-2.6-0.3-4.3-0.8l-0.8,5.6c-0.1,0.3-0.1,0.5-0.1,0.8c0,1.9,1.8,3.5,3.9,3.5
s3.9-1.6,3.9-3.5c0-0.3,0-0.6-0.1-0.8L28.6,39.8z" />
		<path d="M42.3,35.5c-0.1,0-0.1-0.1-0.2-0.1c0,0,0,0-0.1,0L37.5,34c-0.1,0.1-0.1,0.2-0.2,0.3c-1.4,1.9-3.2,3.4-5.3,4.4l8,3.9l0.1,0
v0c0.1,0,0.1,0,0.2,0.1c1,0.2,2.2-1.3,2.7-3.3C43.4,37.6,43.1,35.9,42.3,35.5z" />
		<path d="M25.2,37.8c4,0.7,8.1-1.4,10.5-4.6c2.1-2.9,2.9-6.5,2.7-10.1c-0.1-3.3-1.1-6.4-2.8-9.2c-0.5-0.7-0.9-1.4-1.5-2
c-0.1-0.1-0.1-0.2-0.3-0.2c-0.2-0.1-0.5,0.1-0.6,0.3c-0.1,0.3,0,0.5,0,0.8c0.3,1.5-0.5,2.8-1,4.3c-0.4-1.2-1.1-2.5-1.7-3.6
c-1.4-2.3-3.1-4.6-3.9-7.2c-0.4-1.5-0.5-3.1-0.2-4.6c0-0.2,0-0.5-0.2-0.6c-0.1,0-0.2,0-0.3,0.1c-2.8,1.9-4.7,5-5.7,8.3
c-0.7,2.3-1.3,5.2-1.5,7.9c-0.3-1.3-1.1-1.7-1.8-2.7c-0.1-0.2-0.3-0.4-0.5-0.4c-0.5,0-0.6,0.7-0.5,1.2c0.1,1.2-0.5,2.3-0.9,3.5
c-1.3,3.2-1.8,6.8-0.8,10.2c0.8,2.9,2.7,5.5,5.3,6.9C20.3,36.4,22.5,37.2,25.2,37.8z M20.2,34.8c-1-1.5-0.9-3.5-0.4-5.2
c0,0,0,0,0,0c0,0,0,0,0,0c0.3-1,0.8-1.8,1.4-2.7c0.3-0.4,0.6-0.9,0.9-1.3c1.5-2,2.9-4.7,2.6-7.1c0,0,0,0,0,0
c3,2.9,4.2,7.5,1.7,12.6c-0.5,1.1-0.6,1.1-0.8,1.6c-0.1,0.5,0.1,0.9,0.6,0.7c0,0,0,0,0,0c2.3-0.7,4.2-2,5.7-3.4c0,0,0,0,0,0
c-0.6,2.3-2.2,4.5-3.9,5.6c0,0-0.1,0.1-0.1,0.1c-0.5,0.4-2.1,1.3-2.7,1.4h0c0,0,0,0,0,0C22.9,37.3,21,36,20.2,34.8z" />
	</g>
</svg> -->
<svg id="Layer_1" data-name="Layer 1" xmlns="http://www.w3.org/2000/svg" xmlns:xlink="http://www.w3.org/1999/xlink" viewBox="0 0 36.4 47.9">
	<defs>
		<style>
			.cls-1{fill:url(#Degradado_sin_nombre_93);}
		</style>
		<radialGradient id="Degradado_sin_nombre_93" cx="26.05" cy="19.52" fx="32.583617503022126" fy="5.25062449471238" r="15.69" gradientUnits="userSpaceOnUse">
			<stop offset="0.25" stop-color="#f9ff00" />
			<stop offset="0.32" stop-color="#fbd800" />
			<stop offset="0.42" stop-color="#fda500" />
			<stop offset="0.5" stop-color="#fe8500" />
			<stop offset="0.54" stop-color="#ff7900" />
			<stop offset="0.59" stop-color="#ff5c00" />
			<stop offset="0.65" stop-color="#ff3500" />
			<stop offset="0.72" stop-color="#ff1800" />
			<stop offset="0.77" stop-color="#ff0600" />
			<stop offset="0.81" stop-color="red" />
		</radialGradient>
	</defs>
	<path d="M14.1,33.5,8,35.3H7.7c-.8.4-1.2,2.1-.7,3.9.5,2,1.7,3.5,2.7,3.3.1,0,.1,0,.2-.1H10l9.5-4.7A14.43,14.43,0,0,1,14.1,33.5Z" transform="translate(-6.78 -1.1)" />
	<path d="M28.6,39.8a10.87,10.87,0,0,1-1.8.1,16.55,16.55,0,0,1-4.3-.8l-.8,5.6a2.2,2.2,0,0,0-.1.8A3.77,3.77,0,0,0,25.5,49a3.77,3.77,0,0,0,3.9-3.5,2,2,0,0,0-.1-.8Z" transform="translate(-6.78 -1.1)" />
	<path d="M42.3,35.5c-.1,0-.1-.1-.2-.1H42L37.5,34c-.1.1-.1.2-.2.3A14.09,14.09,0,0,1,32,38.7l8,3.9h.1c.1,0,.1,0,.2.1,1,.2,2.2-1.3,2.7-3.3C43.4,37.6,43.1,35.9,42.3,35.5Z" transform="translate(-6.78 -1.1)" />
	<path class="cls-1" d="M25.2,37.8c4,.7,8.1-1.4,10.5-4.6a15.61,15.61,0,0,0,2.7-10.1,18.7,18.7,0,0,0-2.8-9.2,14.91,14.91,0,0,0-1.5-2c-.1-.1-.1-.2-.3-.2s-.5.1-.6.3a2.15,2.15,0,0,0,0,.8c.3,1.5-.5,2.8-1,4.3a23.68,23.68,0,0,0-1.7-3.6c-1.4-2.3-3.1-4.6-3.9-7.2a10.24,10.24,0,0,1-.2-4.6c0-.2,0-.5-.2-.6a.37.37,0,0,0-.3.1,15.27,15.27,0,0,0-5.7,8.3,38.17,38.17,0,0,0-1.5,7.9c-.3-1.3-1.1-1.7-1.8-2.7a.66.66,0,0,0-.5-.4c-.5,0-.6.7-.5,1.2A9.07,9.07,0,0,1,15,19a15.55,15.55,0,0,0-.8,10.2,11.22,11.22,0,0,0,5.3,6.9A43.54,43.54,0,0,0,25.2,37.8Zm-5-3a6.28,6.28,0,0,1-.4-5.2h0a9.93,9.93,0,0,1,1.4-2.7c.3-.4.6-.9.9-1.3,1.5-2,2.9-4.7,2.6-7.1h0c3,2.9,4.2,7.5,1.7,12.6-.5,1.1-.6,1.1-.8,1.6s.1.9.6.7h0A14.69,14.69,0,0,0,31.9,30h0A10.06,10.06,0,0,1,28,35.6l-.1.1a9.93,9.93,0,0,1-2.7,1.4h0A5.62,5.62,0,0,1,20.2,34.8Z" transform="translate(-6.78 -1.1)" />
</svg>
